<svg xmlns="http://www.w3.org/2000/svg" viewBox="0 0 66 32" class="brand-logo"><title>SP Logo</title><path d="M63.58932,16.73626A5.69345,5.69345,0,0,0,59.49979,15a5.88141,5.88141,0,0,0-2.8146.74077l-0.02308.01142-0.02292.01158a0.19963,0.19963,0,0,0-.10069.24087l0.35032,1.07255a0.19991,0.19991,0,0,0,.18987.13792l2.25024,0.00344a0.19989,0.19989,0,0,1,.11735.36151l-1.81841,1.32562a0.19978,0.19978,0,0,0-.07252.22312L58.24746,21.27a0.2,0.2,0,0,1-.30753.22374l-1.8227-1.32015a0.20061,0.20061,0,0,0-.2347,0l-1.82255,1.32a0.19992,0.19992,0,0,1-.30753-0.22343l0.69211-2.14134a0.2,0.2,0,0,0-.07252-0.22312l-1.81856-1.32562a0.19987,0.19987,0,0,1,.1175-0.36151l2.25032-.00344a0.20013,0.20013,0,0,0,.18987-0.13792l0.35024-1.07239a0.19988,0.19988,0,0,0-.10076-0.241l-0.02308-.01158-0.02308-.01134A5.87993,5.87993,0,0,0,52.49983,15a5.69284,5.69284,0,0,0-4.08937,1.73626A8.97943,8.97943,0,0,0,46,23.00006C46,27.96257,50.48585,32,55.99989,32s10-4.03743,10-8.99994a8.97951,8.97951,0,0,0-2.41053-6.26381" /><g style="isolation:isolate"><path d="M6.43848,20.72266v2.24512a4.215,4.215,0,0,0,.46582,2.1709,1.86541,1.86541,0,0,0,1.8999.9834,2.22665,2.22665,0,0,0,1.82568-.72461,2.2824,2.2824,0,0,0,.61426-1.63379,4.76405,4.76405,0,0,0-1.70459-3.50977,29.70833,29.70833,0,0,0-3.83643-2.95215q-0.98437-.873-1.93359-1.709A11.094,11.094,0,0,1,1.99707,13.8291,7.04159,7.04159,0,0,1,.79785,11.60059,7.66984,7.66984,0,0,1,.27832,8.667Q0.38818,0.03174,9.09082.14355q8.70337,0.14795,8.62891,7.62988v2.72168H11.415V8.8623a5.86065,5.86065,0,0,0-.35059-2.24512A1.95652,1.95652,0,0,0,9.09863,5.52246q-2.47339.03809-2.51172,2.28418a2.225,2.225,0,0,0,.53955,1.374,15.17927,15.17927,0,0,0,1.33984,1.50391,49.01425,49.01425,0,0,0,3.9624,3.15723q0.98071,0.835,2.03564,1.59668a13.41734,13.41734,0,0,1,1.86914,1.876,8.1504,8.1504,0,0,1,1.3877,2.58105,12.51823,12.51823,0,0,1,.49951,3.84375,7.344,7.344,0,0,1-1.96143,4.93945A7.43943,7.43943,0,0,1,13.38135,30.665,11.91647,11.91647,0,0,1,8.835,31.501a11.42835,11.42835,0,0,1-4.23486-.75977,7.66492,7.66492,0,0,1-2.78613-1.873A7.18292,7.18292,0,0,1,.34766,26.40332a7.46642,7.46642,0,0,1-.44043-2.42871v-3.2627Z" /><path d="M21.18945,0.64453h7.47021q5.74585-.07324,8.32275,1.5957,2.54,1.81934,2.502,7.626a24.00888,24.00888,0,0,1-.22266,3.28418,8.3373,8.3373,0,0,1-1.07617,2.91309A5.37383,5.37383,0,0,1,35.959,18.123a7.65672,7.65672,0,0,1-3.84082.835H28.166V31H21.18945V0.64453ZM28.166,13.5791h1.75342a2.27493,2.27493,0,0,0,2.18164-.91406,3.609,3.609,0,0,0,.373-1.23145q0.03735-.68994.0376-1.7168,0-2.66748-.83936-3.24512a2.21133,2.21133,0,0,0-1.10059-.41016q-0.68994-.03809-1.60352-0.03809H28.166V13.5791Z" /></g></svg>